<?xml version="1.0" encoding="utf-8"?>
<!-- Generator: Adobe Illustrator 24.1.2, SVG Export Plug-In . SVG Version: 6.00 Build 0)  -->
<svg version="1.1" id="fingerprint" xmlns="http://www.w3.org/2000/svg" x="0px"
	 y="0px" viewBox="0 0 1231 931.8" style="enable-background:new 0 0 1231 931.8;" xml:space="preserve">
<style type="text/css">
	.st0{fill:#535F85;}
	.st1{opacity:0.22;fill:#535F85;}
	.st2{opacity:0.49;fill:#535F85;}
	.st3{fill:#65D3F4;}
</style>
<path id="print" class="st0" d="M502.5,652.6c-2.1,0-4.3-1.1-5.4-3c-1.8-3-0.8-6.8,2.1-8.6c0.5-0.3,54-33,90.2-75.2
	c30.8-35.9,41.1-70.6,36.6-80.8c-0.7-1.6-1.8-2.7-4.6-2.7c-0.1,0-0.2,0-0.3,0c-6.1,0.1-9,6.6-15.1,23.4
	c-5.3,14.7-12.6,34.8-28.1,54.9c-32.7,42.3-82.3,66.5-84.4,67.5c-3.1,1.5-6.9,0.2-8.4-2.9c-1.5-3.1-0.2-6.9,2.9-8.4
	c0.6-0.3,49.1-24,79.9-63.9c14.4-18.6,21-36.8,26.3-51.5c6.2-17.2,11.6-32,27.4-31.7c7.3,0.1,12.9,3.7,15.8,10.1
	c8.3,18.4-8.3,58.9-38.5,94.1c-37.5,43.8-91,76.4-93.3,77.8C504.6,652.3,503.5,652.6,502.5,652.6z M522.8,668.5
	c2.9-1.5,71-37.3,107.2-96.1c12.6-20.5,22.1-43.2,26.5-63.7c4.8-22.1,3.7-40.4-3.1-53.1c-6.2-11.5-16.9-17.9-31-18.3
	c-22.2-0.7-33.2,20.8-48.3,50.5c-5.3,10.5-11.4,22.4-18.7,34.9c-26.3,45.3-73.9,65.5-74.5,65.8c-3.2,1.3-4.7,5-3.4,8.2
	c1.3,3.2,5,4.7,8.2,3.4c2.1-0.9,52-22,80.5-71.1c7.5-12.8,13.6-24.9,19-35.5c14.8-29,23.1-44.1,36.8-43.7
	c9.6,0.3,16.3,4.1,20.4,11.7c11.1,20.6,1.4,64.5-23.1,104.3C585,621.5,517.7,657,517,657.3c-3.1,1.6-4.3,5.4-2.7,8.4
	c1.1,2.2,3.4,3.4,5.6,3.4C520.9,669.2,521.9,668.9,522.8,668.5z M540,685.2c0.9-0.4,21.9-10.1,47.3-29
	c23.6-17.5,55.5-46.5,73.5-85.1c11.4-24.4,18.9-51.1,21.2-75c2.5-26.3-1.2-48.6-10.9-64.4c-10.2-16.6-26.8-25.9-48.1-26.7
	c-15.9-0.6-30.4,7.3-44.4,24.2c-11.7,14-23,34.2-35.8,63.5c-11.4,26.4-29.6,43.4-42.8,53c-14.4,10.5-26.3,14.7-26.4,14.7l0,0
	c-3.3,1.1-5,4.7-3.9,8c1.1,3.3,4.7,5,8,3.9c2.1-0.7,52.4-18.7,76.6-74.6c24.5-56.2,45.5-80.9,68.2-80.1c17.1,0.7,29.9,7.6,37.8,20.7
	c8.2,13.5,11.4,33,9.1,56.7c-2.2,22.5-9.3,47.7-20.1,70.9c-16.9,36.2-47,63.5-69.4,80.2c-24.4,18.2-45.1,27.8-45.3,27.9
	c-3.1,1.4-4.5,5.2-3.1,8.3c1.1,2.3,3.4,3.7,5.8,3.6C538.3,685.8,539.2,685.6,540,685.2z M557.3,701.9c1-0.4,25.8-10.9,54.8-32.3
	c26.9-19.9,62.5-53.3,79.4-99.7c10.4-28.5,16.3-59.2,16.6-86.6c0.4-30.7-6.1-56.9-18.7-75.8c-14.7-21.9-36.8-33.6-65.7-34.8
	c-18.2-0.7-37.1,7.1-53.3,22.1c-17.2,15.9-30.9,39.3-39.9,67.6c-7.4,23.5-20.4,42.4-38.6,56.1c-13.6,10.3-25.3,13.7-25.4,13.7l0,0
	c-3.3,0.9-5.3,4.4-4.3,7.7c0.9,3.3,4.4,5.3,7.7,4.4c0.5-0.2,13.6-3.9,29.1-15.4c14.1-10.5,33.2-30,43.5-62.7
	c8.3-26.3,20.9-47.8,36.5-62.2c13.7-12.7,29.5-19.4,44.3-18.8c24.7,1,43.5,10.9,55.8,29.2c11.2,16.7,16.9,40.4,16.5,68.6
	c-0.3,26-6,55.3-15.9,82.5c-15.8,43.4-49.4,74.9-74.9,93.7c-27.8,20.6-52.2,30.9-52.4,31c-3.2,1.3-4.7,5-3.4,8.2
	c1,2.4,3.4,3.9,5.9,3.9C555.8,702.4,556.6,702.2,557.3,701.9z M765.5,644.6c2.1-2.7,1.6-6.7-1.1-8.8c-0.1-0.1-10.8-8.4-18.9-19.1
	c-2.1-2.8-6-3.3-8.8-1.2c-2.8,2.1-3.3,6-1.2,8.8c9.1,12,20.8,21.1,21.2,21.5c1.2,0.9,2.5,1.3,3.9,1.3
	C762.4,647.1,764.2,646.2,765.5,644.6z M728.5,601.2c3.2-1.3,4.8-4.9,3.5-8.1c-7-17.7-8.1-36.1-3.2-54.9c7.4-28.2,9.8-56.6,7-82.2
	c-2.9-26.7-11.6-50.5-25-68.6c-19.7-26.6-49.6-41.5-86.3-42.9c-22-0.9-45.5,7.7-66.1,24.2c-21.8,17.4-38.3,41.7-47.7,70.3
	c-4.2,12.6-6.5,18.3-10.8,26.4c-1.6,3.1-0.5,6.9,2.6,8.5c3.1,1.6,6.9,0.5,8.5-2.6c4.6-8.7,7.2-15.1,11.6-28.3
	c8.7-26.2,23.7-48.5,43.6-64.4c18.3-14.6,38.8-22.2,57.8-21.5c33.3,1.3,59.1,14,76.7,37.8c24.4,32.9,30.3,85.3,15.9,140.2
	c-5.6,21.4-4.4,42.5,3.6,62.7c1,2.5,3.4,4,5.9,3.9C727,601.7,727.7,601.5,728.5,601.2z M466.5,515.6c0.7-0.2,18.2-4.1,32.2-23.7
	c2-2.8,1.4-6.7-1.4-8.7c-2.8-2-6.7-1.4-8.7,1.4c-11,15.4-24,18.5-24.7,18.7c-3.4,0.7-5.5,4.1-4.8,7.4c0.6,3,3.3,5,6.2,5
	C465.7,515.7,466.1,515.7,466.5,515.6z M779.1,623.1c2.1-2.7,1.6-6.7-1.1-8.8c-0.3-0.2-31.9-25.2-28.5-58.2c0.4-3.4-2.1-6.5-5.6-6.9
	c-3.4-0.4-6.5,2.1-6.9,5.6c-4.2,40,31.7,68.2,33.3,69.4c1.2,0.9,2.5,1.3,3.9,1.3C776,625.5,777.9,624.6,779.1,623.1z M753.7,536.1
	c15.5-61.3,6.8-120.5-24.1-162.4c-24.1-32.8-60-52.1-101.2-54.4c-60.4-3.3-115,38.1-135.8,103.2c-1.1,3.3,0.8,6.8,4.1,7.9
	c3.3,1.1,6.8-0.8,7.9-4.1c19-59.5,68.5-97.5,123.1-94.5c19,1,36.7,6,52.5,14.6c15.3,8.4,28.5,20,39.2,34.6
	c28.6,38.9,36.6,94.3,22,151.9c-0.8,3.4,1.2,6.8,4.5,7.6c0.5,0.1,1.1,0.2,1.6,0.2C750.5,540.8,753,538.9,753.7,536.1z M494.1,447.6
	c0.8-3.4-1.3-6.7-4.7-7.5c-3.4-0.8-6.7,1.3-7.5,4.7c-5.8,25.2-18.8,26.2-19.3,26.2c0.1,0,0.1,0,0.1,0l0.1,12.5c0,0,0,0,0,0
	C464,483.6,486.1,482.8,494.1,447.6z M471.4,444c4.5-18,14-37.8,21-52.2l0-0.1c1.5-3.1,0.2-6.8-2.9-8.3c-3.1-1.5-6.9-0.2-8.4,2.9
	c-7.2,14.9-17.1,35.3-21.9,54.6c-0.8,3.4,1.2,6.8,4.6,7.6c0.5,0.1,1.1,0.2,1.6,0.2C468.2,448.7,470.7,446.8,471.4,444z M779.2,533.3
	c14.6-67.6,3-132.9-31.7-179.1c-13.3-17.8-29.5-32-48.2-42.4c-19.3-10.7-40.7-17-63.6-18.6c-33.2-2.4-95.7,3.8-140.7,71.6
	c-1.9,2.9-1.1,6.8,1.8,8.7c2.9,1.9,6.8,1.1,8.7-1.8c16.8-25.3,37.8-43.7,62.3-54.7c20.7-9.2,43.2-13.1,67.1-11.4
	c21,1.5,40.7,7.2,58.4,17.1c17.1,9.5,32,22.6,44.3,39c32.5,43.3,43.3,104.9,29.4,168.9c-0.7,3.4,1.4,6.7,4.8,7.4
	c0.5,0.1,0.9,0.1,1.4,0.1C776,538.2,778.5,536.2,779.2,533.3z M802,437.1c3.4-0.5,5.8-3.7,5.2-7.2c-7.2-45.6-25-84.9-51.5-113.8
	c-14.3-15.6-31.2-28.1-50.1-37.2c-20-9.6-42.4-15.3-66.7-17.1c-34.8-2.5-79.6,11.3-111.5,34.3c-2.8,2-3.4,5.9-1.4,8.7
	s5.9,3.4,8.7,1.4c34.3-24.8,76.6-33.9,103.3-32c44.3,3.2,80.8,20.1,108.4,50.2c24.8,27,41.5,64.1,48.3,107.2
	c0.5,3.1,3.2,5.3,6.3,5.3C801.4,437.1,801.7,437.1,802,437.1z M784.9,316.7c2.8-2.1,3.3-6,1.2-8.8c-14.3-18.8-36.4-36.8-62.2-50.6
	c-25.5-13.7-51.8-21.8-74-22.8c-35.9-1.6-68.7,4.9-94.8,19c-3,1.6-4.2,5.4-2.6,8.5c1.6,3,5.4,4.2,8.5,2.6c24.1-13,54.7-19,88.3-17.5
	c42.6,1.9,99.5,32.7,126.8,68.5c1.2,1.6,3.2,2.5,5.1,2.5C782.4,318,783.8,317.6,784.9,316.7z M788.6,595.7c2.1-2.8,1.5-6.7-1.2-8.8
	c-0.2-0.1-17.8-13.8-14-32.3c0.7-3.4-1.5-6.7-4.9-7.4c-3.4-0.7-6.7,1.5-7.4,4.9c-5.4,26.2,17.7,44.1,18.7,44.8
	c1.2,0.9,2.5,1.3,3.9,1.3C785.6,598.1,787.4,597.3,788.6,595.7z M587.6,714.9c1.1-0.5,26.6-12,54.1-32.3
	c30.3-22.3,50.5-45.7,60.2-69.8c7.8,17.2,21.9,42.9,39.3,52.2c3.1,1.6,6.8,0.5,8.5-2.6c1.6-3.1,0.5-6.8-2.6-8.5
	c-18.6-9.9-35.3-48-40.2-61.9c-0.9-2.7-3.5-4.4-6.4-4.2c-2.8,0.2-5.2,2.3-5.7,5C682.2,658,583.6,703,582.5,703.5
	c-3.2,1.4-4.6,5.1-3.2,8.3c1.1,2.4,3.4,3.7,5.8,3.7C585.9,715.5,586.8,715.3,587.6,714.9z M624.5,721.6c0.8-0.5,19.2-11.5,38.6-26.5
	c19-14.7,32.1-27.8,39.1-39.2c0.6,1,1.3,2.1,2,3.2c7,11.1,14.2,18.8,21.4,22.9c3,1.7,6.8,0.7,8.6-2.3c1.7-3,0.7-6.8-2.3-8.6
	c-10.9-6.3-21.4-25.5-24.5-32.4c-1.1-2.5-3.7-4-6.4-3.6c-2.7,0.3-4.9,2.4-5.4,5c-4.3,22.4-57.3,58.5-77.4,70.6
	c-3,1.8-3.9,5.6-2.2,8.6c1.2,2,3.3,3.1,5.5,3C622.5,722.5,623.5,722.2,624.5,721.6z M669,717.9c1.1-0.5,27.9-13.4,40.8-29.5
	c2.2-2.7,1.7-6.6-1-8.8c-2.7-2.2-6.6-1.7-8.8,1c-11,13.8-36.1,25.9-36.4,26l0,0c-3.1,1.5-4.4,5.2-3,8.4c1.1,2.3,3.4,3.6,5.7,3.6
	C667.3,718.5,668.2,718.3,669,717.9z M484.4,362.9c15.1-29.3,31.2-41.3,31.3-41.5c2.8-2,3.4-6,1.4-8.8c-2-2.8-5.9-3.4-8.8-1.4
	c-0.7,0.5-18.5,13.7-35.1,45.9c-1.6,3.1-0.4,6.9,2.7,8.4c0.9,0.5,1.9,0.7,2.9,0.7C481.2,366.3,483.3,365,484.4,362.9z M520.1,287.3
	l18.2-12.4c2.9-2,3.6-5.9,1.6-8.7c-2-2.9-5.9-3.6-8.7-1.6L513,276.9c-2.9,2-3.6,5.9-1.6,8.7c1.2,1.8,3.2,2.8,5.3,2.7
	C517.8,288.4,519,288,520.1,287.3z M796.8,564.8c11.4-20.2,15.6-71.4,13.5-99.2c-0.3-3.5-3.3-6-6.7-5.8c-3.5,0.3-6,3.3-5.8,6.7
	c2.1,28.5-2.8,75.9-11.9,92.2c-1.7,3-0.6,6.8,2.4,8.5c1,0.6,2.1,0.8,3.2,0.8C793.6,567.9,795.7,566.8,796.8,564.8z M807.2,368.5
	c3.1-1.4,4.5-5.1,3.1-8.3l-13.8-30.4c-1.4-3.1-5.1-4.5-8.3-3.1c-3.1,1.4-4.5,5.1-3.1,8.3l13.8,30.4c1.1,2.3,3.4,3.7,5.8,3.7
	C805.5,369.1,806.4,368.9,807.2,368.5z"/>
<path id="squarre" class="st0" d="M380.9,285c-3.3,0-6-2.7-6-6v-87.4c0-3.3,2.7-6,6-6h72.5c3.3,0,6,2.7,6,6c0,3.3-2.7,6-6,6h-66.5
	V279C386.9,282.3,384.2,285,380.9,285z M879.1,279v-87.4c0-3.3-2.7-6-6-6h-72.5c-3.3,0-6,2.7-6,6c0,3.3,2.7,6,6,6h66.5V279
	c0,3.3,2.7,6,6,6C876.4,285,879.1,282.3,879.1,279z M459.5,775.8c0-3.3-2.7-6-6-6h-66.5v-81.4c0-3.3-2.7-6-6-6c-3.3,0-6,2.7-6,6
	v87.4c0,3.3,2.7,6,6,6h72.5C456.8,781.8,459.5,779.2,459.5,775.8z M879.1,775.8v-87.4c0-3.3-2.7-6-6-6c-3.3,0-6,2.7-6,6v81.4h-66.5
	c-3.3,0-6,2.7-6,6c0,3.3,2.7,6,6,6h72.5C876.4,781.8,879.1,779.2,879.1,775.8z"/>
<path id="number_1_" class="st1" d="M286,521c-13.5,0-24.4-11-24.4-24.4c0-13.5,11-24.4,24.4-24.4c13.5,0,24.4,11,24.4,24.4
	C310.4,510,299.5,521,286,521z M286,475.6c-11.5,0-20.9,9.4-20.9,20.9s9.4,20.9,20.9,20.9c11.5,0,20.9-9.4,20.9-20.9
	S297.6,475.6,286,475.6z M294.9,496.3c0,9.3-3.5,14.5-9.5,14.5c-5.4,0-9-5-9.1-14.1c0-9.2,4-14.3,9.5-14.3
	C291.6,482.4,294.9,487.6,294.9,496.3z M280,496.7c0,7.1,2.2,11.2,5.6,11.2c3.8,0,5.6-4.4,5.6-11.4c0-6.7-1.7-11.2-5.6-11.2
	C282.4,485.3,280,489.3,280,496.7z M989.7,582.5c-19.6,0-35.5-15.9-35.5-35.5s15.9-35.5,35.5-35.5c19.6,0,35.5,15.9,35.5,35.5
	S1009.3,582.5,989.7,582.5z M989.7,516.6c-16.8,0-30.4,13.6-30.4,30.4c0,16.8,13.6,30.4,30.4,30.4c16.8,0,30.4-13.6,30.4-30.4
	C1020.1,530.2,1006.5,516.6,989.7,516.6z M998.8,530.9c-1.1-0.1-2.5,0-4,0.2c-8.5,1.4-12.9,7.6-13.9,14.2h0.2
	c1.9-2.5,5.2-4.6,9.6-4.6c7,0,12,5.1,12,12.9c0,7.3-5,14-13.2,14c-8.5,0-14.1-6.6-14.1-17c0-7.8,2.8-14,6.7-18
	c3.3-3.2,7.7-5.3,12.7-5.9c1.6-0.2,2.9-0.3,3.9-0.3V530.9z M997.3,553.9c0-5.7-3.2-9.1-8.2-9.1c-3.2,0-6.3,2-7.7,4.9
	c-0.4,0.6-0.6,1.4-0.6,2.4c0.1,6.6,3.1,11.4,8.8,11.4C994.2,563.5,997.3,559.6,997.3,553.9z M224.9,305.8c-24.2,0-44-19.7-44-44
	s19.7-44,44-44c24.2,0,44,19.7,44,44S249.2,305.8,224.9,305.8z M224.9,224.1c-20.8,0-37.7,16.9-37.7,37.7s16.9,37.7,37.7,37.7
	s37.7-16.9,37.7-37.7S245.7,224.1,224.9,224.1z M222.6,243.4h-0.2l-8.6,4.6l-1.3-5.1l10.8-5.8h5.7v49.4h-6.5V243.4z M1081.1,337.2
	c-29.2,0-53-23.8-53-53c0-29.2,23.8-53,53-53s53,23.8,53,53C1134.1,313.4,1110.3,337.2,1081.1,337.2z M1081.1,238.7
	c-25,0-45.4,20.4-45.4,45.4c0,25,20.4,45.4,45.4,45.4c25,0,45.4-20.4,45.4-45.4C1126.5,259.1,1106.2,238.7,1081.1,238.7z
	 M1096.3,261.2h-22.7l-2.3,15.3c1.4-0.2,2.7-0.4,4.9-0.4c4.6,0,9.2,1,12.8,3.2c4.7,2.7,8.5,7.8,8.5,15.3c0,11.6-9.3,20.3-22.2,20.3
	c-6.5,0-12-1.8-14.8-3.7l2-6.1c2.5,1.5,7.3,3.3,12.7,3.3c7.6,0,14.1-4.9,14.1-12.9c-0.1-7.7-5.2-13.2-17.1-13.2
	c-3.4,0-6,0.4-8.2,0.6l3.8-28.6h28.5V261.2z"/>
<path id="number" class="st2" d="M834.3,79.8c-22,0-39.9-17.9-39.9-39.9c0-22,17.9-39.9,39.9-39.9s39.9,17.9,39.9,39.9
	C874.2,61.9,856.3,79.8,834.3,79.8z M834.3,5.7c-18.8,0-34.2,15.3-34.2,34.2s15.3,34.2,34.2,34.2s34.2-15.3,34.2-34.2
	S853.1,5.7,834.3,5.7z M818.4,51c0-5.7,3.4-9.7,8.9-12l-0.1-0.2c-5-2.3-7.1-6.2-7.1-10.1c0-7.1,6-11.9,13.9-11.9c8.7,0,13,5.4,13,11
	c0,3.8-1.9,7.9-7.4,10.5v0.2c5.6,2.2,9,6.1,9,11.6c0,7.8-6.7,13-15.2,13C824,63.1,818.4,57.6,818.4,51z M842.5,50.7
	c0-5.4-3.8-8.1-9.9-9.8c-5.2,1.5-8.1,5-8.1,9.2c-0.2,4.5,3.2,8.5,9,8.5C839,58.7,842.5,55.3,842.5,50.7z M825.8,28.3
	c0,4.5,3.4,6.9,8.5,8.3c3.9-1.3,6.8-4.1,6.8-8.1c0-3.6-2.1-7.3-7.6-7.3C828.6,21.2,825.8,24.5,825.8,28.3z M1193.1,797.3
	c-20.9,0-37.9-17-37.9-37.9c0-20.9,17-37.9,37.9-37.9c20.9,0,37.9,17,37.9,37.9C1231,780.3,1214,797.3,1193.1,797.3z M1193.1,727
	c-17.9,0-32.4,14.6-32.4,32.4c0,17.9,14.6,32.4,32.4,32.4s32.4-14.6,32.4-32.4C1225.6,741.5,1211,727,1193.1,727z M1178.6,780.7
	v-3.5l4.5-4.4c10.9-10.3,15.8-15.8,15.8-22.2c0-4.3-2.1-8.3-8.4-8.3c-3.9,0-7.1,2-9,3.6l-1.8-4.1c2.9-2.5,7.1-4.3,12-4.3
	c9.2,0,13,6.3,13,12.4c0,7.9-5.7,14.2-14.7,22.8l-3.4,3.1v0.1h19.1v4.8H1178.6z M506.2,126.8c-28.2,0-51.2-23-51.2-51.2
	c0-28.2,23-51.2,51.2-51.2c28.2,0,51.2,23,51.2,51.2C557.4,103.8,534.4,126.8,506.2,126.8z M506.2,31.8c-24.2,0-43.9,19.7-43.9,43.9
	c0,24.2,19.7,43.9,43.9,43.9c24.2,0,43.9-19.7,43.9-43.9C550,51.4,530.4,31.8,506.2,31.8z M488.4,95.5c2.2,1.4,7.3,3.6,12.7,3.6
	c10,0,13.1-6.4,13-11.1c-0.1-8-7.3-11.5-14.9-11.5h-4.3v-5.8h4.3c5.7,0,12.8-2.9,12.8-9.7c0-4.6-2.9-8.7-10.1-8.7
	c-4.6,0-9,2-11.5,3.8l-2-5.7c3-2.2,8.8-4.4,15-4.4c11.3,0,16.5,6.7,16.5,13.7c0,5.9-3.5,11-10.6,13.5v0.2
	c7.1,1.4,12.8,6.7,12.8,14.8c0,9.2-7.2,17.2-21,17.2c-6.5,0-12.1-2-14.9-3.9L488.4,95.5z M826.2,901.7c-21.5,0-39-17.5-39-39
	c0-21.5,17.5-39,39-39c21.5,0,39,17.5,39,39C865.2,884.2,847.7,901.7,826.2,901.7z M826.2,829.4c-18.4,0-33.4,15-33.4,33.4
	c0,18.4,15,33.4,33.4,33.4c18.4,0,33.4-15,33.4-33.4C859.6,844.3,844.6,829.4,826.2,829.4z M829.6,884.7v-11.9h-20.3v-3.9l19.5-27.9
	h6.4v27.2h6.1v4.6h-6.1v11.9H829.6z M829.6,868.1v-14.6c0-2.3,0.1-4.6,0.2-6.9h-0.2c-1.3,2.6-2.4,4.4-3.6,6.5L815.2,868v0.1H829.6z
	 M230.3,714.3c-21.4,0-38.8-17.4-38.8-38.8c0-21.4,17.4-38.8,38.8-38.8s38.8,17.4,38.8,38.8C269.1,696.9,251.7,714.3,230.3,714.3z
	 M230.3,642.3c-18.3,0-33.2,14.9-33.2,33.2c0,18.3,14.9,33.2,33.2,33.2s33.2-14.9,33.2-33.2C263.5,657.2,248.6,642.3,230.3,642.3z
	 M218.8,693.2c1.3,0.1,2.7,0,4.8-0.2c3.4-0.5,6.6-1.9,9.1-4.2c2.9-2.6,5-6.4,5.8-11.6h-0.2c-2.4,2.9-5.9,4.7-10.3,4.7
	c-7.8,0-12.9-5.9-12.9-13.3c0-8.2,6-15.5,14.9-15.5c8.9,0,14.4,7.2,14.4,18.4c0,9.6-3.2,16.3-7.5,20.4c-3.4,3.3-8,5.3-12.7,5.8
	c-2.1,0.3-4,0.4-5.4,0.3V693.2z M221,668.2c0,5.4,3.3,9.2,8.4,9.2c4,0,7-1.9,8.6-4.6c0.3-0.5,0.5-1.2,0.5-2.1
	c0-7.4-2.7-13.1-8.9-13.1C224.5,657.6,221,662,221,668.2z M480.9,891.5c-14.2,0-25.8-11.6-25.8-25.8c0-14.2,11.6-25.8,25.8-25.8
	c14.2,0,25.8,11.6,25.8,25.8C506.7,879.9,495.1,891.5,480.9,891.5z M480.9,843.6c-12.2,0-22.1,9.9-22.1,22.1s9.9,22.1,22.1,22.1
	c12.2,0,22.1-9.9,22.1-22.1S493.1,843.6,480.9,843.6z M489.8,851.2v2.6l-12.6,26.4h-4.1l12.6-25.6v-0.1h-14.2v-3.3H489.8z"/>
<path id="send" class="st0" d="M1181.8,421.6c-25,0-45.2,20.3-45.2,45.2c0,24.9,20.3,45.2,45.2,45.2s45.2-20.3,45.2-45.2
	C1227,441.9,1206.7,421.6,1181.8,421.6z M1181.8,506.5c-21.9,0-39.7-17.8-39.7-39.7c0-21.9,17.8-39.7,39.7-39.7s39.7,17.8,39.7,39.7
	C1221.5,488.7,1203.7,506.5,1181.8,506.5z M1152,446.6v40.6h59.2v-40.6H1152z M1200.1,452.1l-18.8,14.1l-18.3-14.1H1200.1z
	 M1205.6,481.6h-48.1V455l23.7,18.2l24.4-18.3V481.6z"/>
<path id="shield" class="st0" d="M692.4,184.3c-22,0-39.9-17.9-39.9-39.9s17.9-39.9,39.9-39.9s39.9,17.9,39.9,39.9
	S714.4,184.3,692.4,184.3z M692.4,109.3c-19.3,0-35,15.7-35,35c0,19.3,15.7,35,35,35c19.3,0,35-15.7,35-35
	C727.4,125,711.7,109.3,692.4,109.3z M694,171.3c0.4-1.3-0.4-2.7-1.7-3c-23.5-6.4-21.5-29.3-20.6-35.1c3.3-1.2,12.1-4.6,20.9-8.8
	c1.2-0.6,1.8-2,1.2-3.3c-0.6-1.2-2-1.8-3.3-1.2c-10.9,5.1-21.8,9.1-21.9,9.1l-1.3,0.5l-0.3,1.3c-0.1,0.3-7.1,33.7,23.8,42.1
	c0.2,0.1,0.4,0.1,0.6,0.1C692.8,173.2,693.8,172.4,694,171.3z M692.7,173.1c30.9-8.4,23.9-41.8,23.8-42.1l-0.3-1.3l-1.3-0.5
	c-0.1,0-10.9-4-21.9-9.1c-1.2-0.6-2.7,0-3.3,1.2c-0.6,1.2,0,2.7,1.2,3.3c8.9,4.1,17.7,7.5,20.9,8.8c0.9,5.8,2.9,28.7-20.6,35.1
	c-1.3,0.4-2.1,1.7-1.7,3c0.3,1.1,1.3,1.8,2.4,1.8C692.3,173.2,692.5,173.1,692.7,173.1z M687.5,156.8c0.7,0,1.3-0.3,1.7-0.8
	c0.1-0.1,8.3-9.4,19.1-16.2c1.1-0.7,1.5-2.2,0.8-3.4c-0.7-1.1-2.2-1.5-3.4-0.8c-8.6,5.4-15.5,12.1-18.5,15.3
	c-4.8-4.1-7.6-5.6-7.7-5.7c-1.2-0.6-2.7-0.2-3.3,1c-0.6,1.2-0.2,2.7,1,3.3c0,0,3.1,1.7,8.5,6.6c0.5,0.4,1,0.6,1.6,0.6
	C687.4,156.8,687.5,156.8,687.5,156.8z"/>
<path id="earth" class="st0" d="M388.6,429.6c-20.7,0-37.6-16.9-37.6-37.6c0-20.7,16.9-37.6,37.6-37.6s37.6,16.9,37.6,37.6
	C426.1,412.7,409.3,429.6,388.6,429.6z M388.6,359c-18.2,0-33,14.8-33,33c0,18.2,14.8,33,33,33s33-14.8,33-33
	C421.5,373.8,406.7,359,388.6,359z M396.3,392.1l-8.2,0.5c-0.7,0-0.8,0.4-0.2,0.8l1.7,1.1c-0.1,0-0.1,0-0.2,0.1
	c-0.2,0.1-0.5,0.2-0.8,0.3c-0.3,0.1-0.6,0.2-0.9,0.3c-0.3,0.1-0.7,0.2-1.1,0.3c-0.2,0.1-0.4,0.1-0.6,0.2c-0.2,0.1-0.4,0.1-0.6,0.2
	c-0.2,0-0.4,0.1-0.6,0.2c-0.2,0-0.4,0.1-0.7,0.1c-0.5,0.1-0.9,0.2-1.4,0.3c-0.5,0.1-1,0.2-1.5,0.3c-0.5,0.1-1,0.2-1.6,0.2
	c-0.5,0.1-1.1,0.1-1.6,0.2c-0.3,0-0.6,0-0.8,0.1c-0.3,0-0.6,0-0.8,0c-1.1,0.1-2.3,0.1-3.4,0.1c-0.3,0-0.6,0-0.9,0
	c-0.3,0-0.6,0-0.9,0c-0.3,0-0.6,0-0.8,0c-0.3,0-0.6,0-0.8-0.1c-1.1-0.1-2.2-0.3-3.2-0.5c-1-0.2-1.9-0.6-2.6-1
	c-0.3-0.2-0.6-0.4-0.8-0.7c-0.1-0.1-0.1-0.2-0.2-0.3c0-0.1,0-0.2-0.1-0.4c0-0.1-0.1-0.2-0.1-0.4c0-0.1,0-0.3,0-0.5
	c0-0.3,0.1-0.6,0.1-1c0.2-0.6,0.4-1.2,0.6-1.7c0.2-0.5,0.4-0.8,0.6-1.1c0.1-0.2,0.2-0.4,0.2-0.4s-0.1,0.1-0.4,0.2
	c-0.2,0.2-0.6,0.4-1,0.7c-0.4,0.3-0.9,0.8-1.4,1.4c-0.2,0.3-0.5,0.7-0.7,1.2c-0.1,0.2-0.2,0.5-0.3,0.8c-0.1,0.3-0.1,0.6-0.1,0.9
	c0,0.3,0.2,0.6,0.3,0.9c0.1,0.3,0.3,0.6,0.5,0.9c0.4,0.5,0.9,1,1.4,1.3c1,0.7,2.2,1,3.3,1.3c1.2,0.3,2.3,0.4,3.5,0.6
	c0.3,0,0.6,0,0.9,0.1l0.4,0l0.2,0l0.1,0l0.1,0c0.3,0,0.6,0,0.9,0c0.3,0,0.6,0,0.9,0c1.2,0,2.4,0,3.6-0.1c0.3,0,0.6,0,0.9-0.1
	c0.3,0,0.6,0,0.9-0.1c0.6,0,1.2-0.1,1.7-0.2c0.6-0.1,1.1-0.2,1.6-0.2c0.5-0.1,1.1-0.2,1.6-0.3c0.5-0.1,1-0.2,1.5-0.3
	c0.2-0.1,0.5-0.1,0.7-0.2c0.2-0.1,0.5-0.1,0.7-0.2c0.2-0.1,0.4-0.1,0.6-0.2c0.2-0.1,0.4-0.1,0.6-0.2c0.4-0.1,0.8-0.2,1.1-0.3
	c0.4-0.1,0.7-0.2,1-0.3c0.3-0.1,0.6-0.2,0.8-0.3c0.2-0.1,0.4-0.1,0.5-0.2l-0.2,2.1c-0.1,0.7,0.3,0.9,0.8,0.3l5.5-6.1
	C397.2,392.5,397,392.1,396.3,392.1z M388.2,393.6l1.3,0.9c-0.1,0-0.1,0-0.2,0.1c-0.2,0.1-0.5,0.2-0.8,0.3c-0.1,0-0.2,0.1-0.3,0.1
	v2.5c0,0,0.1,0,0.1,0c0.4-0.1,0.7-0.2,1-0.3c0.3-0.1,0.6-0.2,0.8-0.3c0.2-0.1,0.3-0.1,0.5-0.2v-3.2h5.8l0.4-0.5
	c0.5-0.5,0.3-0.9-0.3-0.9c0,0-0.1,0-0.1,0l-8.2,0.5c-0.7,0-0.8,0.4-0.2,0.8l0.1,0.1h0.2V393.6z M390.6,399.4V397l-0.1,1.8
	C390.4,399.1,390.5,399.3,390.6,399.4z M377.1,397.1c-0.3,0-0.6,0-0.8,0c0,0,0,0-0.1,0c0.1,0.8,0.2,1.6,0.3,2.4c0.2,0,0.5,0,0.7,0
	c0.3,0,0.6,0,0.9-0.1c0.3,0,0.5,0,0.8-0.1c-0.1-0.8-0.3-1.6-0.3-2.4c-0.2,0-0.4,0-0.6,0.1C377.6,397,377.3,397,377.1,397.1z
	 M365.4,396.3c0.1,0.9,0.3,1.8,0.6,2.6c0.9,0.2,1.8,0.3,2.6,0.4c-0.3-0.8-0.5-1.6-0.7-2.5c-0.6-0.1-1.2-0.2-1.8-0.3
	C365.9,396.4,365.7,396.4,365.4,396.3z M389.4,368c-13.4,0-24.3,10.9-24.3,24.3c0,1.1,0.1,2.2,0.2,3.2c0.3,0.1,0.7,0.2,1.1,0.3
	c0.5,0.1,0.9,0.2,1.4,0.3c-0.1-0.9-0.3-1.7-0.3-2.6h8.4c0,1,0.1,2,0.2,2.9c0,0,0.1,0,0.1,0l0.2,0l0.7,0l0.2,0l0.6-0.1c0,0,0,0,0,0
	c0.2,0,0.4,0,0.6-0.1c-0.1-0.9-0.1-1.8-0.2-2.8h8.6c-0.2-0.3-0.2-0.6-0.1-0.8c0.1-0.3,0.3-0.8,1.3-0.8l8.2-0.5c0,0,0.1,0,0.1,0
	c0.8,0,1.1,0.5,1.2,0.7c0.1,0.3,0.2,0.8-0.3,1.4h3.1c-0.1,3.5-0.6,6.9-1.5,9.9c-2.6-0.4-5.4-0.7-8.3-0.8v-2.4
	c-0.2,0-0.4-0.1-0.6-0.3c-0.2-0.3-0.3-0.6-0.3-1.1l0.1-1c-0.1,0-0.2,0.1-0.3,0.1c-0.3,0.1-0.6,0.2-1,0.3c-0.1,0-0.2,0.1-0.3,0.1v4.3
	c-2.9,0.1-5.7,0.3-8.3,0.8c-0.3-1-0.6-2.1-0.8-3.3c-0.3,0-0.6,0.1-0.9,0.1l-0.5,0l-0.4,0c0,0,0,0,0,0l-0.4,0l-0.3,0
	c0.2,1.2,0.5,2.4,0.8,3.5c-2,0.4-3.9,1-5.6,1.7c-1.2-1.6-2.2-3.4-2.9-5.3c-1-0.1-1.9-0.2-2.7-0.4c3.2,9.8,12.3,16.8,23.1,16.8
	c13.4,0,24.3-10.9,24.3-24.3C413.7,378.9,402.8,368,389.4,368z M375.9,391h-8.4c0.2-4.4,1.8-8.5,4.3-11.8c1.7,0.7,3.6,1.3,5.6,1.7
	C376.5,384.1,376,387.5,375.9,391z M378.1,378.7c-1.7-0.4-3.3-0.8-4.8-1.4c2.4-2.6,5.4-4.6,8.9-5.8c-0.9,1.1-1.8,2.3-2.6,3.8
	C379.1,376.4,378.6,377.5,378.1,378.7z M388.2,391h-9.9c0.1-3.4,0.6-6.7,1.5-9.6c2.7,0.5,5.5,0.7,8.4,0.8V391z M388.2,379.8
	c-2.7-0.1-5.2-0.3-7.6-0.7c0.4-0.9,0.8-1.8,1.2-2.6c1.8-3.4,4.1-5.5,6.4-6V379.8z M373.5,407.4c1.5-0.5,3-1,4.7-1.3
	c0.4,1.1,0.9,2.1,1.4,3.1c0.8,1.5,1.7,2.8,2.6,3.8C378.9,411.8,375.9,409.9,373.5,407.4z M388.2,414c-2.4-0.5-4.6-2.6-6.4-6
	c-0.4-0.8-0.8-1.6-1.1-2.4c2.4-0.4,4.9-0.6,7.5-0.7V414z M407,379.3c2.4,3.3,4,7.4,4.2,11.7h-8.4c-0.1-3.6-0.6-7-1.5-10
	C403.4,380.6,405.3,380,407,379.3z M390.6,370.5c2.4,0.5,4.6,2.6,6.4,6c0.4,0.8,0.8,1.7,1.2,2.7c-2.4,0.4-5,0.6-7.6,0.7V370.5z
	 M390.6,391v-8.8c2.9-0.1,5.8-0.3,8.4-0.8c0.9,2.9,1.4,6.2,1.5,9.6H390.6z M399.1,375.4c-0.8-1.5-1.7-2.8-2.6-3.8
	c3.4,1.2,6.5,3.2,8.9,5.8c-1.5,0.5-3.1,1-4.8,1.4C400.2,377.5,399.7,376.4,399.1,375.4z M390.6,414v-9.1c2.6,0.1,5.2,0.3,7.5,0.7
	c-0.3,0.8-0.7,1.7-1.1,2.4C395.2,411.4,393,413.5,390.6,414z M396.5,413c0.9-1.1,1.8-2.3,2.6-3.8c0.5-1,1-2,1.4-3.1
	c1.7,0.4,3.2,0.8,4.7,1.3C402.8,409.9,399.8,411.8,396.5,413z M401.3,403.8c0.9-3.2,1.5-6.7,1.6-10.3h8.4c-0.2,4.5-1.8,8.6-4.4,12
	C405.1,404.8,403.3,404.2,401.3,403.8z"/>
<path id="camera" class="st3" d="M253.9,105.3c-27.5,0-49.9-22.4-49.9-49.9c0-27.5,22.4-49.9,49.9-49.9c27.5,0,49.9,22.4,49.9,49.9
	C303.8,82.9,281.4,105.3,253.9,105.3z M253.9,11.6c-24.1,0-43.8,19.6-43.8,43.8s19.6,43.8,43.8,43.8c24.1,0,43.8-19.6,43.8-43.8
	S278.1,11.6,253.9,11.6z M276.7,79.6h-30.7c-1.9,0-3.7-0.7-5-2.1c-1.3-1.3-2.1-3.1-2.1-5l0-5.7h-3.5l-0.1,5h-13.7V37.7h13.7l0.1,5.9
	h3.5l0-1.9c0-1.9,0.7-3.7,2.1-5c1.3-1.3,3.1-2.1,5-2.1h30.7c3.9,0,7.1,3.2,7.1,7.1v30.7C283.8,76.4,280.6,79.6,276.7,79.6z
	 M230.8,62.1h12.6l0,10.3c0,0.7,0.3,1.3,0.7,1.8c0.5,0.5,1.1,0.7,1.8,0.7h30.7c1.4,0,2.5-1.1,2.5-2.5V41.7c0-1.4-1.1-2.5-2.5-2.5
	h-30.7c-0.7,0-1.3,0.3-1.8,0.7c-0.5,0.5-0.7,1.1-0.7,1.8l0,6.5h-12.7l-0.1-5.9h-4.6v24.9h4.6L230.8,62.1z"/>
<path id="wifi" class="st3" d="M253.9,931.8c-38.3,0-69.4-31.1-69.4-69.4c0-38.3,31.1-69.4,69.4-69.4c38.3,0,69.4,31.1,69.4,69.4
	C323.3,900.6,292.2,931.8,253.9,931.8z M253.9,801.5c-33.6,0-60.9,27.3-60.9,60.9s27.3,60.9,60.9,60.9c33.6,0,60.9-27.3,60.9-60.9
	S287.5,801.5,253.9,801.5z M296.5,887.8c0-35.6-28.9-64.5-64.5-64.5c-2.4,0-4.3,1.9-4.3,4.3c0,2.4,1.9,4.3,4.3,4.3
	c30.9,0,56,25.1,56,56c0,2.4,1.9,4.3,4.3,4.3C294.5,892.1,296.5,890.2,296.5,887.8z M280.6,887.8c0-26.8-21.8-48.6-48.6-48.6
	c-2.4,0-4.3,1.9-4.3,4.3s1.9,4.3,4.3,4.3c22.1,0,40.1,18,40.1,40.1c0,2.4,1.9,4.3,4.3,4.3C278.6,892.1,280.6,890.2,280.6,887.8z
	 M264.1,887.8c0-17.7-14.4-32.1-32.1-32.1c-2.4,0-4.3,1.9-4.3,4.3c0,2.4,1.9,4.3,4.3,4.3c13,0,23.6,10.6,23.6,23.6
	c0,2.4,1.9,4.3,4.3,4.3S264.1,890.2,264.1,887.8z M235.6,875.9c-4.6,0-8.3,3.7-8.3,8.3c0,4.6,3.7,8.3,8.3,8.3c4.6,0,8.3-3.7,8.3-8.3
	C243.9,879.6,240.2,875.9,235.6,875.9z"/>
<path id="loop" class="st3" d="M53.9,579C24.2,579,0,554.8,0,525.1c0-29.7,24.2-53.9,53.9-53.9c29.7,0,53.9,24.2,53.9,53.9
	C107.7,554.8,83.6,579,53.9,579z M53.9,477.8c-26.1,0-47.3,21.2-47.3,47.3c0,26.1,21.2,47.3,47.3,47.3c26.1,0,47.3-21.2,47.3-47.3
	C101.1,499,79.9,477.8,53.9,477.8z M54.3,535.5c-12.9,0-23.4-10.5-23.4-23.4c0-12.9,10.5-23.4,23.4-23.4c12.9,0,23.4,10.5,23.4,23.4
	C77.6,525,67.2,535.5,54.3,535.5z M54.3,495.3c-9.2,0-16.7,7.5-16.7,16.7c0,9.2,7.5,16.7,16.7,16.7c9.2,0,16.7-7.5,16.7-16.7
	C71,502.9,63.5,495.3,54.3,495.3z M57.1,561.9v-29.8c0-1.8-1.5-3.3-3.3-3.3c-1.8,0-3.3,1.5-3.3,3.3v29.8c0,1.8,1.5,3.3,3.3,3.3
	C55.6,565.2,57.1,563.7,57.1,561.9z"/>
<path id="people" class="st3" d="M1026.2,161.9c-38.3,0-69.4-31.1-69.4-69.4s31.1-69.4,69.4-69.4s69.4,31.1,69.4,69.4
	S1064.5,161.9,1026.2,161.9z M1026.2,31.6c-33.6,0-60.9,27.3-60.9,60.9s27.3,60.9,60.9,60.9c33.6,0,60.9-27.3,60.9-60.9
	S1059.8,31.6,1026.2,31.6z M1058.9,101.7c-0.7-0.3-1.3-0.8-1.3-1.6v-0.9c0-0.6,0.4-1.2,1-1.5c4.2-1.9,7.1-6.1,7.1-10.9
	c0-6.6-5.5-12-12.2-12s-12.2,5.4-12.2,12c0,4.8,2.9,8.9,7,10.9c0.6,0.3,1,0.9,1,1.5v0.8c0,0.8-0.6,1.4-1.4,1.7
	c-0.7,0.2-1.4,0.5-2.1,0.9c3.8,3.1,6.6,6.7,6.6,9.8c0,4.5-2.5,7.7-7.4,9.3c2.6,0.2,5.5,0.2,8.6,0.2c11.3,0,20.4-0.5,20.4-7.7
	C1073.7,110,1065.2,103.9,1058.9,101.7z M1030.5,94.8v-1.1c0-0.8,0.5-1.5,1.2-1.8c5.2-2.4,8.8-7.6,8.8-13.6
	c0-8.3-6.8-14.9-15.2-14.9c-8.4,0-15.2,6.7-15.2,14.9c0,6,3.6,11.1,8.7,13.5c0.8,0.3,1.2,1.1,1.2,1.9v1c0,1-0.8,1.7-1.7,2.1
	c-7.4,2.6-18.4,11-18.4,15.7c0,9,11.4,9.6,25.4,9.6c14,0,25.4-0.6,25.4-9.6c0-5.4-10.6-12.9-18.5-15.7
	C1031.2,96.4,1030.5,95.7,1030.5,94.8z M998.2,112.4c0-2.9,2.9-6.5,6.8-9.6c-0.9-0.4-1.8-0.8-2.7-1.1c-0.7-0.3-1.3-0.8-1.3-1.6v-0.9
	c0-0.6,0.4-1.2,1-1.5c4.2-1.9,7.1-6.1,7.1-10.9c0-6.6-5.5-12-12.2-12c-6.8,0-12.2,5.4-12.2,12c0,4.8,2.9,8.9,7,10.9
	c0.6,0.3,1,0.9,1,1.5v0.8c0,0.8-0.6,1.4-1.4,1.7c-5.9,2.1-14.8,8.9-14.8,12.6c0,7.2,9.1,7.7,20.4,7.7c3.2,0,6.2,0,8.9-0.3
	C1000.7,120.1,998.2,116.9,998.2,112.4z"/>
<path id="setting" class="st3" d="M1008.1,795.3c-38.3,0-69.4-31.1-69.4-69.4c0-38.3,31.1-69.4,69.4-69.4s69.4,31.1,69.4,69.4
	C1077.5,764.1,1046.4,795.3,1008.1,795.3z M1008.1,665c-33.6,0-60.9,27.3-60.9,60.9s27.3,60.9,60.9,60.9c33.6,0,60.9-27.3,60.9-60.9
	S1041.7,665,1008.1,665z M1010.1,718.7C1010.1,718.7,1010.1,718.7,1010.1,718.7c0-3.9,2.9-7.1,6.6-7.6c-0.3-1.3-0.8-2.6-1.3-3.8
	c-1.1,0.6-2.4,1-3.7,1c-2.3,0-4.6-1.1-6.1-3.1c-2.3-3.1-1.8-7.4,0.9-10c-1-0.8-2.1-1.6-3.2-2.3c-1.3,2.7-3.9,4.4-6.8,4.4
	c-0.8,0-1.5-0.1-2.3-0.4c-3.7-1.2-5.8-4.9-5.1-8.6c-0.6,0-1.3-0.1-1.9-0.1c-0.7,0-1.4,0-2.1,0.1c0.7,3.7-1.4,7.4-5.1,8.6
	c-0.8,0.3-1.6,0.4-2.4,0.4c-2.9,0-5.6-1.7-6.8-4.3c-1.1,0.7-2.2,1.5-3.2,2.4c2.7,2.6,3.2,6.8,1,9.9c-1.5,2-3.8,3.1-6.1,3.1
	c-1.2,0-2.5-0.3-3.6-0.9c-0.5,1.2-0.9,2.5-1.2,3.8c3.7,0.5,6.6,3.6,6.6,7.5c0,3.9-2.9,7-6.6,7.5c0.3,1.3,0.7,2.6,1.2,3.8
	c3.3-1.8,7.5-1,9.8,2.2c2.3,3.1,1.8,7.4-0.9,9.9c1,0.9,2.1,1.6,3.2,2.4c1.6-3.4,5.5-5.2,9.2-4c3.7,1.2,5.8,4.9,5.1,8.6
	c0.7,0,1.3,0.1,2,0.1c0.7,0,1.4,0,2-0.1c-0.7-3.7,1.4-7.4,5.1-8.6c3.7-1.2,7.6,0.6,9.2,4c1.1-0.7,2.2-1.5,3.2-2.4
	c-2.7-2.6-3.2-6.8-1-10c2.3-3.1,6.5-4,9.8-2.2c0.5-1.2,0.9-2.5,1.2-3.8C1013,725.8,1010.1,722.6,1010.1,718.7z M987.2,736
	c-9.5,0-17.2-7.7-17.2-17.2c0-9.5,7.7-17.2,17.2-17.2c9.5,0,17.3,7.7,17.3,17.2C1004.4,728.3,996.7,736,987.2,736z M1055.7,735.8
	C1055.7,735.8,1055.7,735.7,1055.7,735.8c0.4-2.9,2.9-4.9,5.7-4.9c-0.1-1-0.3-2-0.5-2.9c-0.9,0.3-1.9,0.4-2.8,0.3
	c-1.7-0.3-3.3-1.3-4.1-2.9c-1.3-2.5-0.5-5.6,1.8-7.2c-0.7-0.7-1.4-1.4-2.1-2.1c-1.2,1.8-3.4,2.8-5.5,2.5c-0.6-0.1-1.1-0.3-1.7-0.5
	c-2.6-1.3-3.7-4.2-2.8-6.9c-0.5-0.1-0.9-0.2-1.4-0.3c-0.5-0.1-1-0.1-1.5-0.2c0.1,2.8-1.8,5.3-4.7,5.8c-0.6,0.1-1.2,0.1-1.8,0
	c-2.1-0.3-3.9-1.8-4.5-3.9c-0.9,0.4-1.8,0.9-2.6,1.4c1.7,2.2,1.6,5.4-0.4,7.4c-1.3,1.3-3.1,1.9-4.8,1.6c-0.9-0.1-1.8-0.5-2.6-1.1
	c-0.5,0.8-0.9,1.7-1.3,2.7c2.7,0.7,4.5,3.4,4,6.2c-0.4,2.8-2.9,4.8-5.7,4.8c0.1,1,0.3,2,0.5,2.9c2.6-1,5.6,0.1,6.9,2.7
	c1.3,2.5,0.5,5.6-1.8,7.2c0.7,0.7,1.4,1.4,2.1,2.1c1.5-2.3,4.6-3.2,7.2-1.9c2.6,1.3,3.7,4.2,2.8,6.9c0.5,0.1,1,0.2,1.4,0.3
	c0.5,0.1,1,0.1,1.5,0.2c-0.1-2.8,1.9-5.3,4.7-5.8c2.8-0.5,5.5,1.2,6.3,3.9c0.9-0.4,1.8-0.9,2.6-1.4c-1.7-2.2-1.6-5.4,0.4-7.4
	c2-2,5.2-2.2,7.4-0.5c0.5-0.8,0.9-1.7,1.3-2.7C1057.1,741.3,1055.3,738.6,1055.7,735.8z M1051.6,735.2c-1,7-7.6,11.8-14.6,10.8
	c-7-1-11.8-7.6-10.8-14.6c1.1-7,7.6-11.8,14.6-10.8C1047.8,721.6,1052.6,728.2,1051.6,735.2z"/>
<path id="Point" class="st0" d="M331.8,863.2c0-1.1,0.9-2,2-2l0,0c1.1,0,2,0.9,2,2l0,0c0,1.1-0.9,2-2,2l0,0c-0.1,0-0.2,0-0.2,0l0,0
	C332.6,865.1,331.8,864.3,331.8,863.2z M351.5,863.2c0-1.1,0.9-2,2-2l0,0c1.1,0,2,0.9,2,2l0,0c0,1.1-0.9,2-2,2l0,0
	c-0.1,0-0.2,0-0.2,0l0,0C352.2,865.1,351.5,864.3,351.5,863.2z M371.2,863.2c0-1.1,0.9-2,2-2l0,0c1.1,0,2,0.9,2,2l0,0
	c0,1.1-0.9,2-2,2l0,0c-0.1,0-0.2,0-0.2,0l0,0C371.9,865.1,371.2,864.2,371.2,863.2z M390.9,863.2c0-1.1,0.9-2,2-2l0,0
	c1.1,0,2,0.9,2,2l0,0c0,1.1-0.9,2-2,2l0,0c-0.1,0-0.2,0-0.2,0l0,0C391.6,865.1,390.9,864.2,390.9,863.2z M410.5,863.2
	c0-1.1,0.9-2,2-2l0,0c1.1,0,2,0.9,2,2l0,0c0,1.1-0.9,2-2,2l0,0c-0.1,0-0.2,0-0.2,0l0,0C411.3,865.1,410.5,864.2,410.5,863.2z
	 M430.2,863.2c0-1.1,0.9-2,2-2l0,0c1.1,0,2,0.9,2,2l0,0c0,1.1-0.9,2-2,2l0,0c-0.1,0-0.2,0-0.2,0l0,0
	C431,865.1,430.2,864.2,430.2,863.2z M449.9,863.2c0-1.1,0.9-2,2-2l0,0c1.1,0,2,0.9,2,2l0,0c0,1.1-0.9,2-2,2l0,0c-0.1,0-0.2,0-0.2,0
	l0,0C450.7,865,449.9,864.2,449.9,863.2z M873.8,837.1c-0.6-0.9-0.3-2.2,0.6-2.8l0,0c0.9-0.6,2.2-0.3,2.8,0.6l0,0
	c0.6,0.9,0.3,2.2-0.6,2.8l0,0c-0.3,0.2-0.7,0.3-1.1,0.3l0,0C874.9,838,874.2,837.7,873.8,837.1z M890.7,826.4
	c-0.6-0.9-0.3-2.2,0.6-2.8l0,0c0.9-0.6,2.2-0.3,2.8,0.6l0,0c0.6,0.9,0.3,2.2-0.6,2.8l0,0c-0.3,0.2-0.7,0.3-1.1,0.3l0,0
	C891.8,827.3,891.1,827,890.7,826.4z M907.6,815.7c-0.6-0.9-0.3-2.2,0.6-2.8l0,0c0.9-0.6,2.2-0.3,2.8,0.6l0,0
	c0.6,0.9,0.3,2.2-0.6,2.8l0,0c-0.3,0.2-0.7,0.3-1.1,0.3l0,0C908.7,816.7,908,816.3,907.6,815.7z M924.5,805
	c-0.6-0.9-0.3-2.2,0.6-2.8l0,0c0.9-0.6,2.2-0.3,2.8,0.6l0,0c0.6,0.9,0.3,2.2-0.6,2.8l0,0c-0.3,0.2-0.7,0.3-1.1,0.3l0,0
	C925.6,806,924.9,805.6,924.5,805z M941.4,794.3c-0.6-0.9-0.3-2.2,0.6-2.8l0,0c0.9-0.6,2.2-0.3,2.8,0.6l0,0c0.6,0.9,0.3,2.2-0.6,2.8
	l0,0c-0.3,0.2-0.7,0.3-1.1,0.3l0,0C942.5,795.3,941.8,794.9,941.4,794.3z M958.3,783.6c-0.6-0.9-0.3-2.2,0.6-2.8l0,0
	c0.9-0.6,2.2-0.3,2.8,0.6l0,0c0.6,0.9,0.3,2.2-0.6,2.8l0,0c-0.3,0.2-0.7,0.3-1.1,0.3l0,0C959.4,784.6,958.7,784.2,958.3,783.6z
	 M997.2,642.1c-0.1-1.1,0.7-2.1,1.8-2.2l0,0c1.1-0.1,2.1,0.7,2.2,1.8l0,0c0.1,1.1-0.7,2.1-1.8,2.2l0,0c-0.1,0-0.1,0-0.2,0l0,0
	C998.1,643.9,997.3,643.1,997.2,642.1z M995.2,622.2c-0.1-1.1,0.7-2.1,1.8-2.2l0,0c1.1-0.1,2.1,0.7,2.2,1.8l0,0
	c0.1,1.1-0.7,2.1-1.8,2.2l0,0c-0.1,0-0.1,0-0.2,0l0,0C996.2,624,995.3,623.2,995.2,622.2z M993.2,602.3c-0.1-1.1,0.7-2.1,1.8-2.2
	l0,0c1.1-0.1,2.1,0.7,2.2,1.8l0,0c0.1,1.1-0.7,2.1-1.8,2.2l0,0c-0.1,0-0.1,0-0.2,0l0,0C994.2,604.1,993.3,603.3,993.2,602.3z
	 M1148.4,754c-1.1-0.2-1.8-1.2-1.7-2.3l0,0c0.2-1.1,1.2-1.8,2.3-1.7l0,0c1.1,0.2,1.8,1.2,1.7,2.3l0,0c-0.2,1-1,1.7-2,1.7l0,0
	C1148.6,754.1,1148.5,754,1148.4,754z M1128.6,751c-1.1-0.2-1.8-1.2-1.7-2.3l0,0c0.2-1.1,1.2-1.8,2.3-1.7l0,0
	c1.1,0.2,1.8,1.2,1.7,2.3l0,0c-0.2,1-1,1.7-2,1.7l0,0C1128.8,751,1128.7,751,1128.6,751z M1108.8,747.9c-1.1-0.2-1.8-1.2-1.7-2.3
	l0,0c0.2-1.1,1.2-1.8,2.3-1.7l0,0c1.1,0.2,1.8,1.2,1.7,2.3l0,0c-0.1,1-1,1.7-2,1.7l0,0C1109,748,1108.9,748,1108.8,747.9z
	 M1089.1,744.9c-1.1-0.2-1.8-1.2-1.7-2.3l0,0c0.2-1.1,1.2-1.8,2.3-1.7l0,0c1.1,0.2,1.8,1.2,1.7,2.3l0,0c-0.2,1-1,1.7-2,1.7l0,0
	C1089.3,744.9,1089.2,744.9,1089.1,744.9z M1034.3,523.6c-0.4-1,0.1-2.2,1.1-2.6l0,0c1-0.4,2.2,0.1,2.6,1.1l0,0
	c0.4,1-0.1,2.2-1.1,2.6l0,0c-0.2,0.1-0.5,0.1-0.7,0.1l0,0C1035.3,524.9,1034.6,524.4,1034.3,523.6z M1052.8,516.2
	c-0.4-1,0.1-2.2,1.1-2.6l0,0c1-0.4,2.2,0.1,2.6,1.1l0,0c0.4,1-0.1,2.2-1.1,2.6l0,0c-0.2,0.1-0.5,0.1-0.8,0.1l0,0
	C1053.9,517.4,1053.1,517,1052.8,516.2z M1071.4,508.7c-0.4-1,0.1-2.2,1.1-2.6l0,0c1-0.4,2.2,0.1,2.6,1.1l0,0c0.4,1-0.1,2.2-1.1,2.6
	l0,0c-0.2,0.1-0.5,0.1-0.8,0.1l0,0C1072.5,510,1071.7,509.5,1071.4,508.7z M1090,501.3c-0.4-1,0.1-2.2,1.1-2.6l0,0
	c1-0.4,2.2,0.1,2.6,1.1l0,0c0.4,1-0.1,2.2-1.1,2.6l0,0c-0.2,0.1-0.5,0.1-0.8,0.1l0,0C1091,502.6,1090.3,502.1,1090,501.3z
	 M1108.5,493.9c-0.4-1,0.1-2.2,1.1-2.6l0,0c1-0.4,2.2,0.1,2.6,1.1l0,0c0.4,1-0.1,2.2-1.1,2.6l0,0c-0.2,0.1-0.5,0.1-0.8,0.1l0,0
	C1109.6,495.1,1108.9,494.7,1108.5,493.9z M1127.1,486.5c-0.4-1,0.1-2.2,1.1-2.6l0,0c1-0.4,2.2,0.1,2.6,1.1l0,0
	c0.4,1-0.1,2.2-1.1,2.6l0,0c-0.2,0.1-0.5,0.1-0.7,0.1l0,0C1128.2,487.7,1127.4,487.2,1127.1,486.5z M232.8,777.7
	c-0.1-1.1,0.7-2.1,1.8-2.2l0,0c1.1-0.1,2.1,0.7,2.2,1.8l0,0c0.1,1.1-0.7,2.1-1.8,2.2l0,0c-0.1,0-0.1,0-0.2,0l0,0
	C233.8,779.5,232.9,778.7,232.8,777.7z M230.9,757.8c-0.1-1.1,0.7-2.1,1.8-2.2l0,0c1.1-0.1,2.1,0.7,2.2,1.8l0,0
	c0.1,1.1-0.7,2.1-1.8,2.2l0,0c-0.1,0-0.1,0-0.2,0l0,0C231.9,759.6,231,758.8,230.9,757.8z M229,737.9c-0.1-1.1,0.7-2.1,1.8-2.2l0,0
	c1.1-0.1,2.1,0.7,2.2,1.8l0,0c0.1,1.1-0.7,2.1-1.8,2.2l0,0c-0.1,0-0.1,0-0.2,0l0,0C230,739.7,229.1,738.9,229,737.9z M227.1,718
	c-0.1-1.1,0.7-2.1,1.8-2.2l0,0c1.1-0.1,2.1,0.7,2.2,1.8l0,0c0.1,1.1-0.7,2.1-1.8,2.2l0,0c-0.1,0-0.1,0-0.2,0l0,0
	C228.1,719.8,227.2,719,227.1,718z M181.8,644.9c-0.8-0.7-0.9-2-0.2-2.8l0,0c0.7-0.9,2-1,2.8-0.2l0,0c0.8,0.7,0.9,2,0.2,2.8l0,0
	c-0.4,0.5-1,0.7-1.5,0.7l0,0C182.6,645.3,182.2,645.2,181.8,644.9z M166.6,631.9c-0.8-0.7-0.9-2-0.2-2.8l0,0c0.7-0.8,2-0.9,2.8-0.2
	l0,0c0.8,0.7,0.9,2,0.2,2.8l0,0c-0.4,0.5-1,0.7-1.5,0.7l0,0C167.4,632.4,167,632.2,166.6,631.9z M151.4,618.9c-0.9-0.7-1-2-0.2-2.8
	l0,0c0.7-0.8,2-0.9,2.8-0.2l0,0c0.8,0.7,0.9,2,0.2,2.8l0,0c-0.4,0.5-1,0.7-1.5,0.7l0,0C152.2,619.4,151.7,619.2,151.4,618.9z
	 M136.1,606c-0.8-0.7-0.9-2-0.2-2.8l0,0c0.7-0.8,2-0.9,2.8-0.2l0,0c0.9,0.7,1,2,0.2,2.8l0,0c-0.4,0.5-1,0.7-1.5,0.7l0,0
	C137,606.4,136.5,606.3,136.1,606z M120.9,593c-0.8-0.7-0.9-2-0.2-2.8l0,0c0.7-0.8,2-0.9,2.8-0.2l0,0c0.8,0.7,0.9,2,0.2,2.8l0,0
	c-0.4,0.5-1,0.7-1.5,0.7l0,0C121.7,593.5,121.3,593.3,120.9,593z M105.7,580c-0.8-0.7-0.9-2-0.2-2.8l0,0c0.7-0.8,2-0.9,2.8-0.2l0,0
	c0.8,0.7,0.9,2,0.2,2.8l0,0c-0.4,0.5-1,0.7-1.5,0.7l0,0C106.5,580.5,106.1,580.3,105.7,580z M256.4,628.3c-1-0.5-1.3-1.8-0.8-2.7
	l0,0c0.5-1,1.8-1.3,2.7-0.8l0,0c1,0.5,1.3,1.8,0.8,2.7l0,0c-0.4,0.7-1.1,1-1.8,1l0,0C257.1,628.5,256.7,628.5,256.4,628.3z
	 M266.2,610.8c-1-0.5-1.3-1.8-0.8-2.7l0,0c0.5-1,1.8-1.3,2.7-0.8l0,0c1,0.5,1.3,1.8,0.8,2.7l0,0c-0.4,0.7-1,1-1.8,1l0,0
	C266.8,611.1,266.5,611,266.2,610.8z M275.9,593.4c-1-0.5-1.3-1.8-0.8-2.7l0,0c0.5-1,1.8-1.3,2.7-0.8l0,0c1,0.5,1.3,1.8,0.8,2.7l0,0
	c-0.4,0.6-1.1,1-1.8,1l0,0C276.6,593.6,276.2,593.5,275.9,593.4z M285.7,575.9c-1-0.5-1.3-1.8-0.8-2.7l0,0c0.5-1,1.8-1.3,2.7-0.8
	l0,0c1,0.5,1.3,1.8,0.8,2.7l0,0c-0.4,0.7-1,1-1.8,1l0,0C286.3,576.2,286,576.1,285.7,575.9z M295.5,558.4c-1-0.5-1.3-1.8-0.8-2.7
	l0,0c0.5-1,1.8-1.3,2.7-0.8l0,0c1,0.5,1.3,1.8,0.8,2.7l0,0c-0.4,0.7-1.1,1-1.8,1l0,0C296.1,558.7,295.8,558.6,295.5,558.4z
	 M305.2,541c-1-0.5-1.3-1.8-0.8-2.7l0,0c0.5-1,1.8-1.3,2.7-0.8l0,0c1,0.5,1.3,1.8,0.8,2.7l0,0c-0.4,0.6-1,1-1.7,1l0,0
	C305.9,541.2,305.5,541.2,305.2,541z M315,523.5c-1-0.5-1.3-1.8-0.8-2.7l0,0c0.5-1,1.8-1.3,2.7-0.8l0,0c1,0.5,1.3,1.8,0.8,2.7l0,0
	c-0.4,0.6-1,1-1.7,1l0,0C315.6,523.8,315.3,523.7,315,523.5z M324.7,506.1c-1-0.5-1.3-1.8-0.8-2.7l0,0c0.5-1,1.8-1.3,2.7-0.8l0,0
	c1,0.5,1.3,1.8,0.8,2.7l0,0c-0.4,0.6-1,1-1.7,1l0,0C325.4,506.3,325,506.2,324.7,506.1z M334.5,488.6c-1-0.5-1.3-1.8-0.8-2.7l0,0
	c0.5-1,1.8-1.3,2.7-0.8l0,0c1,0.5,1.3,1.8,0.8,2.7l0,0c-0.4,0.7-1,1-1.8,1l0,0C335.1,488.9,334.8,488.8,334.5,488.6z M344.3,471.2
	c-1-0.5-1.3-1.8-0.8-2.7l0,0c0.5-1,1.8-1.3,2.7-0.8l0,0c1,0.5,1.3,1.8,0.8,2.7l0,0c-0.4,0.7-1.1,1-1.8,1l0,0
	C344.9,471.4,344.6,471.3,344.3,471.2z M354,453.7c-1-0.5-1.3-1.8-0.8-2.7l0,0c0.5-1,1.8-1.3,2.7-0.8l0,0c1,0.5,1.3,1.8,0.8,2.7l0,0
	c-0.4,0.7-1,1-1.8,1l0,0C354.7,454,354.3,453.9,354,453.7z M363.8,436.2c-1-0.5-1.3-1.8-0.8-2.7l0,0c0.5-1,1.8-1.3,2.7-0.8l0,0
	c1,0.5,1.3,1.8,0.8,2.7l0,0c-0.4,0.7-1,1-1.8,1l0,0C364.4,436.5,364.1,436.4,363.8,436.2z M1068.1,231.1c-0.4-1,0.2-2.2,1.2-2.6l0,0
	c1-0.4,2.2,0.2,2.6,1.2l0,0c0.4,1-0.2,2.2-1.2,2.6l0,0c-0.2,0.1-0.4,0.1-0.7,0.1l0,0C1069.2,232.4,1068.4,231.9,1068.1,231.1z
	 M1061.5,212.2c-0.4-1,0.2-2.2,1.2-2.5l0,0c1-0.4,2.2,0.2,2.5,1.2l0,0c0.4,1-0.2,2.2-1.2,2.5l0,0c-0.2,0.1-0.4,0.1-0.6,0.1l0,0
	C1062.6,213.6,1061.8,213,1061.5,212.2z M1054.9,193.3c-0.4-1,0.2-2.2,1.2-2.6l0,0c1-0.4,2.2,0.2,2.6,1.2l0,0c0.4,1-0.2,2.2-1.2,2.6
	l0,0c-0.2,0.1-0.4,0.1-0.7,0.1l0,0C1056,194.7,1055.2,194.2,1054.9,193.3z M1048.3,174.5c-0.4-1,0.2-2.2,1.2-2.5l0,0
	c1-0.4,2.2,0.2,2.5,1.2l0,0c0.4,1-0.2,2.2-1.2,2.5l0,0c-0.2,0.1-0.4,0.1-0.7,0.1l0,0C1049.4,175.8,1048.6,175.3,1048.3,174.5z
	 M944.2,64.9c-1.1-0.2-1.8-1.3-1.5-2.4l0,0c0.2-1.1,1.3-1.8,2.4-1.5l0,0c1.1,0.2,1.8,1.3,1.5,2.4l0,0c-0.2,0.9-1,1.6-2,1.6l0,0
	C944.4,65,944.3,65,944.2,64.9z M924.6,60.7c-1.1-0.2-1.8-1.3-1.5-2.4l0,0c0.2-1.1,1.3-1.8,2.4-1.5l0,0c1.1,0.2,1.8,1.3,1.5,2.4l0,0
	c-0.2,0.9-1,1.6-2,1.6l0,0C924.9,60.7,924.8,60.7,924.6,60.7z M905.1,56.5c-1.1-0.2-1.8-1.3-1.5-2.4l0,0c0.2-1.1,1.3-1.8,2.4-1.5
	l0,0c1.1,0.2,1.8,1.3,1.5,2.4l0,0c-0.2,0.9-1,1.6-2,1.6l0,0C905.4,56.5,905.2,56.5,905.1,56.5z M885.5,52.2
	c-1.1-0.2-1.8-1.3-1.5-2.4l0,0c0.2-1.1,1.3-1.8,2.4-1.5l0,0c1.1,0.2,1.8,1.3,1.5,2.4l0,0c-0.2,0.9-1,1.6-2,1.6l0,0
	C885.8,52.2,885.7,52.2,885.5,52.2z M733.7,106.4c-0.6-0.9-0.4-2.2,0.5-2.8l0,0c0.9-0.6,2.2-0.4,2.8,0.5l0,0
	c0.6,0.9,0.4,2.1-0.5,2.8l0,0c-0.3,0.2-0.7,0.4-1.1,0.4l0,0C734.7,107.2,734.1,106.9,733.7,106.4z M750.2,95
	c-0.6-0.9-0.4-2.2,0.5-2.8l0,0c0.9-0.6,2.1-0.4,2.8,0.5l0,0c0.6,0.9,0.4,2.2-0.5,2.8l0,0c-0.4,0.2-0.7,0.4-1.1,0.4l0,0
	C751.2,95.9,750.6,95.6,750.2,95z M766.7,83.7c-0.6-0.9-0.4-2.2,0.5-2.8l0,0c0.9-0.6,2.2-0.4,2.8,0.5l0,0c0.6,0.9,0.4,2.1-0.5,2.8
	l0,0c-0.4,0.2-0.7,0.4-1.1,0.4l0,0C767.7,84.5,767.1,84.2,766.7,83.7z M783.1,72.3c-0.6-0.9-0.4-2.1,0.5-2.8l0,0
	c0.9-0.6,2.1-0.4,2.8,0.5l0,0c0.6,0.9,0.4,2.2-0.5,2.8l0,0c-0.3,0.2-0.7,0.4-1.1,0.4l0,0C784.2,73.2,783.5,72.9,783.1,72.3z
	 M636.3,124.5c-1-0.3-1.6-1.5-1.3-2.5l0,0c0.4-1,1.5-1.6,2.5-1.3l0,0c1.1,0.4,1.6,1.5,1.3,2.5l0,0c-0.3,0.8-1.1,1.4-1.9,1.4l0,0
	C636.7,124.6,636.5,124.6,636.3,124.5z M617.3,118.3c-1-0.3-1.6-1.5-1.3-2.5l0,0c0.4-1,1.5-1.6,2.5-1.3l0,0c1.1,0.4,1.6,1.5,1.3,2.5
	l0,0c-0.3,0.8-1.1,1.4-1.9,1.4l0,0C617.7,118.4,617.5,118.4,617.3,118.3z M598.3,112c-1-0.4-1.6-1.5-1.3-2.5l0,0
	c0.3-1.1,1.5-1.6,2.5-1.3l0,0c1.1,0.3,1.6,1.5,1.3,2.5l0,0c-0.3,0.9-1.1,1.4-1.9,1.4l0,0C598.7,112.1,598.5,112.1,598.3,112z
	 M579.3,105.8c-1-0.4-1.6-1.5-1.3-2.5l0,0c0.3-1.1,1.5-1.6,2.5-1.3l0,0c1.1,0.3,1.6,1.5,1.3,2.5l0,0c-0.3,0.8-1.1,1.4-1.9,1.4l0,0
	C579.7,105.9,579.5,105.8,579.3,105.8z M560.3,99.5c-1.1-0.3-1.6-1.5-1.3-2.5l0,0c0.4-1.1,1.5-1.6,2.5-1.3l0,0
	c1,0.4,1.6,1.5,1.3,2.5l0,0c-0.3,0.8-1.1,1.4-1.9,1.4l0,0C560.7,99.6,560.5,99.6,560.3,99.5z M438.6,67.2c-1.1,0-2-1-1.9-2.1l0,0
	c0-1.1,1-2,2.1-1.9l0,0c1.1,0,2,1,1.9,2.1l0,0C440.6,66.3,439.7,67.2,438.6,67.2L438.6,67.2C438.6,67.2,438.6,67.2,438.6,67.2z
	 M418.6,66.5c-1.1,0-2-1-1.9-2.1l0,0c0-1.1,1-2,2.1-1.9l0,0c1.1,0,2,1,1.9,2.1l0,0C420.6,65.7,419.7,66.5,418.6,66.5L418.6,66.5
	C418.6,66.5,418.6,66.5,418.6,66.5z M398.6,65.8c-1.1,0-2-1-1.9-2.1l0,0c0-1.1,1-2,2.1-1.9l0,0c1.1,0,2,1,1.9,2.1l0,0
	C400.6,65,399.7,65.8,398.6,65.8L398.6,65.8C398.6,65.8,398.6,65.8,398.6,65.8z M378.6,65.1c-1.1,0-2-1-1.9-2.1l0,0
	c0-1.1,1-2,2.1-1.9l0,0c1.1,0,2,1,1.9,2.1l0,0C380.6,64.3,379.7,65.1,378.6,65.1L378.6,65.1C378.6,65.1,378.6,65.1,378.6,65.1z
	 M358.6,64.5c-1.1,0-2-1-1.9-2.1l0,0c0-1.1,1-2,2.1-1.9l0,0c1.1,0,2,1,1.9,2.1l0,0C360.6,63.6,359.7,64.5,358.6,64.5L358.6,64.5
	C358.6,64.5,358.6,64.5,358.6,64.5z M338.6,63.8c-1.1,0-2-1-1.9-2.1l0,0c0-1.1,1-2,2.1-1.9l0,0c1.1,0,2,1,1.9,2.1l0,0
	C340.6,62.9,339.8,63.8,338.6,63.8L338.6,63.8C338.7,63.8,338.6,63.8,338.6,63.8z M318.6,63.1c-1.1,0-2-1-1.9-2.1l0,0
	c0-1.1,1-2,2.1-1.9l0,0c1.1,0,2,1,1.9,2.1l0,0C320.7,62.2,319.8,63.1,318.6,63.1L318.6,63.1C318.7,63.1,318.6,63.1,318.6,63.1z
	 M340.9,363.8c-0.8-0.7-0.9-2-0.2-2.8l0,0c0.7-0.8,2-0.9,2.8-0.2l0,0c0.8,0.7,0.9,2,0.2,2.8l0,0c-0.4,0.5-1,0.7-1.5,0.7l0,0
	C341.7,364.3,341.3,364.1,340.9,363.8z M325.8,350.6c-0.8-0.7-0.9-2-0.2-2.8l0,0c0.7-0.8,2-0.9,2.8-0.2l0,0c0.8,0.7,0.9,2,0.2,2.8
	l0,0c-0.4,0.5-1,0.7-1.5,0.7l0,0C326.7,351.1,326.2,350.9,325.8,350.6z M310.8,337.4c-0.8-0.7-0.9-2-0.2-2.8l0,0
	c0.7-0.8,2-0.9,2.8-0.2l0,0c0.8,0.7,0.9,2,0.2,2.8l0,0c-0.4,0.5-1,0.7-1.5,0.7l0,0C311.7,337.9,311.2,337.8,310.8,337.4z
	 M295.8,324.2c-0.8-0.7-0.9-2-0.2-2.8l0,0c0.7-0.8,2-0.9,2.8-0.2l0,0c0.8,0.7,0.9,2,0.2,2.8l0,0c-0.4,0.4-1,0.7-1.5,0.7l0,0
	C296.6,324.7,296.1,324.6,295.8,324.2z M280.7,311.1c-0.8-0.7-0.9-2-0.2-2.8l0,0c0.7-0.8,2-0.9,2.8-0.2l0,0c0.8,0.7,0.9,2,0.2,2.8
	l0,0c-0.4,0.4-1,0.7-1.5,0.7l0,0C281.6,311.6,281.1,311.4,280.7,311.1z M265.7,297.9c-0.8-0.7-0.9-2-0.2-2.8l0,0
	c0.7-0.8,2-0.9,2.8-0.2l0,0c0.8,0.7,0.9,2,0.2,2.8l0,0c-0.4,0.5-1,0.7-1.5,0.7l0,0C266.5,298.4,266.1,298.2,265.7,297.9z M227,204.2
	c-1.1-0.2-1.8-1.3-1.6-2.4l0,0c0.2-1.1,1.3-1.8,2.4-1.6l0,0c1.1,0.2,1.8,1.3,1.6,2.4l0,0c-0.2,0.9-1,1.6-2,1.6l0,0
	C227.3,204.2,227.2,204.2,227,204.2z M231.1,184.6c-1.1-0.2-1.8-1.3-1.6-2.4l0,0c0.2-1.1,1.3-1.8,2.4-1.6l0,0
	c1.1,0.2,1.8,1.3,1.5,2.4l0,0c-0.2,0.9-1,1.6-2,1.6l0,0C231.4,184.7,231.3,184.6,231.1,184.6z M235.2,165c-1.1-0.2-1.8-1.3-1.6-2.4
	l0,0c0.2-1.1,1.3-1.8,2.4-1.5l0,0c1.1,0.2,1.8,1.3,1.5,2.4l0,0c-0.2,0.9-1,1.6-2,1.6l0,0C235.5,165.1,235.3,165.1,235.2,165z
	 M239.3,145.5c-1.1-0.2-1.8-1.3-1.5-2.4l0,0c0.2-1.1,1.3-1.8,2.4-1.5l0,0c1.1,0.2,1.8,1.3,1.6,2.4l0,0c-0.2,1-1,1.6-2,1.6l0,0
	C239.6,145.5,239.4,145.5,239.3,145.5z M243.4,125.9c-1.1-0.2-1.8-1.3-1.5-2.4l0,0c0.2-1.1,1.3-1.8,2.4-1.5l0,0
	c1.1,0.2,1.8,1.3,1.6,2.4l0,0c-0.2,1-1,1.6-2,1.6l0,0C243.6,125.9,243.5,125.9,243.4,125.9z"/>
</svg>
